<svg width="512.000000" height="512.000000" viewBox="0 0 512 512" fill="none" xmlns="http://www.w3.org/2000/svg" xmlns:xlink="http://www.w3.org/1999/xlink">
	<desc>
			Created with Pixso.
	</desc>
	<defs>
		<filter id="filter_3_3_dd" x="-10.000000" y="-6.000000" width="532.000000" height="532.000000" filterUnits="userSpaceOnUse" color-interpolation-filters="sRGB">
			<feFlood flood-opacity="0" result="BackgroundImageFix"/>
			<feColorMatrix in="SourceAlpha" type="matrix" values="0 0 0 0 0 0 0 0 0 0 0 0 0 0 0 0 0 0 127 0" result="hardAlpha"/>
			<feOffset dx="0" dy="4"/>
			<feGaussianBlur stdDeviation="10"/>
			<feComposite in2="hardAlpha" operator="out" k2="-1" k3="1"/>
			<feColorMatrix type="matrix" values="0 0 0 0 0 0 0 0 0 0 0 0 0 0 0 0 0 0 0.25 0"/>
			<feBlend mode="normal" in2="BackgroundImageFix" result="effect_dropShadow_1"/>
			<feBlend mode="normal" in="SourceGraphic" in2="effect_dropShadow_1" result="shape"/>
		</filter>
		<filter id="filter_3_4_dd" x="46.711792" y="43.456604" width="414.076416" height="424.178467" filterUnits="userSpaceOnUse" color-interpolation-filters="sRGB">
			<feFlood flood-opacity="0" result="BackgroundImageFix"/>
			<feColorMatrix in="SourceAlpha" type="matrix" values="0 0 0 0 0 0 0 0 0 0 0 0 0 0 0 0 0 0 127 0" result="hardAlpha"/>
			<feOffset dx="0" dy="4"/>
			<feGaussianBlur stdDeviation="14.5748"/>
			<feComposite in2="hardAlpha" operator="out" k2="-1" k3="1"/>
			<feColorMatrix type="matrix" values="0 0 0 0 0 0 0 0 0 0 0 0 0 0 0 0 0 0 0.25 0"/>
			<feBlend mode="normal" in2="BackgroundImageFix" result="effect_dropShadow_1"/>
			<feBlend mode="normal" in="SourceGraphic" in2="effect_dropShadow_1" result="shape"/>
		</filter>
		<filter id="filter_3_11_dd" x="-11.000000" y="-7.000031" width="534.000000" height="534.000000" filterUnits="userSpaceOnUse" color-interpolation-filters="sRGB">
			<feFlood flood-opacity="0" result="BackgroundImageFix"/>
			<feColorMatrix in="SourceAlpha" type="matrix" values="0 0 0 0 0 0 0 0 0 0 0 0 0 0 0 0 0 0 127 0" result="hardAlpha"/>
			<feOffset dx="0" dy="4"/>
			<feGaussianBlur stdDeviation="10"/>
			<feComposite in2="hardAlpha" operator="out" k2="-1" k3="1"/>
			<feColorMatrix type="matrix" values="0 0 0 0 0 0 0 0 0 0 0 0 0 0 0 0 0 0 0.25 0"/>
			<feBlend mode="normal" in2="BackgroundImageFix" result="effect_dropShadow_1"/>
			<feBlend mode="normal" in="SourceGraphic" in2="effect_dropShadow_1" result="shape"/>
		</filter>
		<clipPath id="clip3_2">
			<rect id="gxde-timer" width="512.000000" height="512.000000" fill="white" fill-opacity="0"/>
		</clipPath>
		<linearGradient x1="222.545380" y1="15.792278" x2="225.997696" y2="477.000000" id="paint_linear_3_3_0" gradientUnits="userSpaceOnUse">
			<stop stop-color="#FACFC4"/>
			<stop offset="1.000000" stop-color="#F78F91"/>
		</linearGradient>
		<linearGradient x1="256.000031" y1="19.999977" x2="256.000031" y2="492.000061" id="paint_linear_3_3_1" gradientUnits="userSpaceOnUse">
			<stop stop-color="#FFFEFE"/>
			<stop offset="1.000000" stop-color="#FF9B9F"/>
		</linearGradient>
		<linearGradient x1="265.941528" y1="257.832275" x2="265.941528" y2="1024.510986" id="paint_linear_3_7_0" gradientUnits="userSpaceOnUse">
			<stop stop-color="#44B0FB"/>
			<stop offset="1.000000" stop-color="#0074FF"/>
		</linearGradient>
		<linearGradient x1="265.941528" y1="257.832275" x2="265.941528" y2="1024.510986" id="paint_linear_3_8_0" gradientUnits="userSpaceOnUse">
			<stop stop-color="#44B0FB"/>
			<stop offset="1.000000" stop-color="#0074FF"/>
		</linearGradient>
		<linearGradient x1="255.897980" y1="77.181053" x2="255.897980" y2="415.500000" id="paint_linear_3_9_0" gradientUnits="userSpaceOnUse">
			<stop stop-color="#FAFFFB"/>
			<stop offset="1.000000" stop-color="#FCD3D3"/>
		</linearGradient>
		<linearGradient x1="253.750107" y1="79.499802" x2="253.750107" y2="422.000000" id="paint_linear_3_10_0" gradientUnits="userSpaceOnUse">
			<stop stop-color="#FAFFFB"/>
			<stop offset="1.000000" stop-color="#FCD3D3"/>
		</linearGradient>
	</defs>
	<g clip-path="url(#clip3_2)">
		<g filter="url(#filter_3_3_dd)">
			<rect id="rect62" x="28.000000" y="28.000000" rx="228.000000" width="456.000000" height="456.000000" fill="url(#paint_linear_3_3_0)" fill-opacity="1.000000"/>
			<rect id="rect62" x="28.000000" y="28.000000" rx="228.000000" width="456.000000" height="456.000000" stroke="url(#paint_linear_3_3_1)" stroke-opacity="1.000000" stroke-width="16.000000"/>
		</g>
		<g opacity="0.560839" filter="url(#filter_3_4_dd)">
			<path id="path881-4" d="M193.7 196.54C198.19 196.54 203.8 193.17 211.65 189.81C219.51 186.44 228.49 180.83 236.35 179.71C237.47 194.3 244.2 218.99 258.8 218.99C273.39 218.99 279 194.3 281.25 180.83C289.1 181.95 296.96 187.56 303.69 190.93C310.43 194.3 314.92 197.66 319.41 197.66C322.78 197.66 323.9 196.54 325.02 195.42C329.51 190.93 328.39 181.95 325.02 174.09C320.53 163.99 305.94 141.54 261.04 140.42C263.29 112.36 287.98 94.4 310.43 94.4C313.79 94.4 316.04 92.16 316.04 88.79C316.04 85.42 313.79 83.18 310.43 83.18C282.37 83.18 252.06 105.63 248.69 139.3C204.92 141.54 190.33 159.5 185.84 170.73C182.47 179.71 183.59 189.81 186.96 194.3C188.08 194.3 190.33 196.54 193.7 196.54Z" fill="#000000" fill-opacity="0.498039" fill-rule="nonzero"/>
			<path id="path883-8" d="M344.1 165.11C341.86 163.99 339.61 163.99 337.37 165.11C335.12 166.24 335.12 168.48 335.12 170.73C339.61 183.07 337.37 194.3 331.75 201.03C328.39 204.4 322.78 206.64 318.29 206.64C310.43 206.64 304.82 203.28 296.96 198.79L295.84 197.66C294.71 196.54 292.47 196.54 291.35 197.66C290.22 198.79 287.98 199.91 287.98 201.03C283.49 213.38 275.63 229.09 258.8 229.09C240.84 229.09 232.98 211.13 229.61 199.91C229.61 198.79 228.49 196.54 226.25 196.54C225.12 195.42 222.88 195.42 221.76 196.54L217.27 198.79C208.29 203.28 201.55 206.64 193.7 206.64C188.08 206.64 183.59 204.4 179.1 201.03C173.49 195.42 171.25 185.32 173.49 174.09C173.49 171.85 173.49 169.6 171.25 168.48C169 167.36 166.76 167.36 164.51 168.48C142.06 183.07 90.43 223.48 90.43 280.72C91.55 352.56 171.25 419.91 259.92 419.91C345.22 419.91 417.06 355.93 417.06 279.6C417.06 225.73 378.9 185.32 344.1 165.11ZM259.92 397.46C184.72 397.46 114 340.21 114 279.6C114 276.23 116.25 273.99 119.62 273.99C122.98 273.99 125.23 276.23 125.23 279.6C125.23 334.6 190.33 386.23 259.92 386.23C263.29 386.23 265.53 388.48 265.53 391.85C265.53 395.21 263.29 397.46 259.92 397.46Z" fill="#000000" fill-opacity="0.498039" fill-rule="nonzero"/>
		</g>
		<path id="path881" d="M193.7 190.54C198.19 190.54 203.8 187.17 211.65 183.81C219.51 180.44 228.49 174.83 236.35 173.71C237.47 188.3 244.2 212.99 258.8 212.99C273.39 212.99 279 188.3 281.25 174.83C289.1 175.95 296.96 181.56 303.69 184.93C310.43 188.3 314.92 191.66 319.41 191.66C322.78 191.66 323.9 190.54 325.02 189.42C329.51 184.93 328.39 175.95 325.02 168.09C320.53 157.99 305.94 135.54 261.04 134.42C263.29 106.36 287.98 88.4 310.43 88.4C313.79 88.4 316.04 86.16 316.04 82.79C316.04 79.42 313.79 77.18 310.43 77.18C282.37 77.18 252.06 99.62 248.69 133.3C204.92 135.54 190.33 153.5 185.84 164.73C182.47 173.71 183.59 183.81 186.96 188.3C188.08 188.3 190.33 190.54 193.7 190.54Z" fill="url(#paint_linear_3_9_0)" fill-opacity="1.000000" fill-rule="nonzero"/>
		<path id="path883" d="M344.1 159.11C341.86 157.99 339.61 157.99 337.37 159.11C335.12 160.24 335.12 162.48 335.12 164.73C339.61 177.07 337.37 188.3 331.75 195.03C328.39 198.4 322.78 200.64 318.29 200.64C310.43 200.64 304.82 197.28 296.96 192.79L295.84 191.66C294.71 190.54 292.47 190.54 291.35 191.66C290.22 192.79 287.98 193.91 287.98 195.03C283.49 207.38 275.63 223.09 258.8 223.09C240.84 223.09 232.98 205.13 229.61 193.91C229.61 192.79 228.49 190.54 226.25 190.54C225.12 189.42 222.88 189.42 221.76 190.54L217.27 192.79C208.29 197.28 201.55 200.64 193.7 200.64C188.08 200.64 183.59 198.4 179.1 195.03C173.49 189.42 171.25 179.32 173.49 168.09C173.49 165.85 173.49 163.6 171.25 162.48C169 161.36 166.76 161.36 164.51 162.48C142.06 177.07 90.43 217.48 90.43 274.72C91.55 346.56 171.25 413.91 259.92 413.91C345.22 413.91 417.06 349.93 417.06 273.6C417.06 219.73 378.9 179.32 344.1 159.11ZM259.92 391.46C184.72 391.46 114 334.21 114 273.6C114 270.23 116.25 267.99 119.62 267.99C122.98 267.99 125.23 270.23 125.23 273.6C125.23 328.6 190.33 380.23 259.92 380.23C263.29 380.23 265.53 382.48 265.53 385.85C265.53 389.21 263.29 391.46 259.92 391.46Z" fill="url(#paint_linear_3_10_0)" fill-opacity="1.000000" fill-rule="nonzero"/>
		<g filter="url(#filter_3_11_dd)">
			<rect id="rect64" x="19.500000" y="19.500000" rx="236.000000" width="473.000000" height="473.000000" fill="#000000" fill-opacity="0"/>
			<rect id="rect64" x="19.500000" y="19.500000" rx="236.000000" width="473.000000" height="473.000000" stroke="#000000" stroke-opacity="0.078431" stroke-width="1.000000"/>
		</g>
	</g>
</svg>
